<?xml version="1.0" encoding="UTF-8" standalone="no"?>
<svg
   version="1.1"
   width="1080"
   height="1080"
   viewBox="0 0 1080 1080"
   xml:space="preserve"
   id="svg1"
   sodipodi:docname="Mediamodifier-Design.svg"
   inkscape:version="1.4 (e7c3feb100, 2024-10-09)"
   xmlns:inkscape="http://www.inkscape.org/namespaces/inkscape"
   xmlns:sodipodi="http://sodipodi.sourceforge.net/DTD/sodipodi-0.dtd"
   xmlns="http://www.w3.org/2000/svg"
   xmlns:svg="http://www.w3.org/2000/svg"><sodipodi:namedview
   id="namedview1"
   pagecolor="#ffffff"
   bordercolor="#000000"
   borderopacity="0.25"
   inkscape:showpageshadow="2"
   inkscape:pageopacity="0.0"
   inkscape:pagecheckerboard="0"
   inkscape:deskcolor="#d1d1d1"
   inkscape:zoom="0.38697093"
   inkscape:cx="156.34249"
   inkscape:cy="728.73692"
   inkscape:window-width="2834"
   inkscape:window-height="1712"
   inkscape:window-x="23"
   inkscape:window-y="80"
   inkscape:window-maximized="0"
   inkscape:current-layer="svg1" />
<desc
   id="desc1">Created with Fabric.js 5.2.4</desc>
<defs
   id="defs1">
</defs>
<g
   transform="matrix(1 0 0 1 540 540)"
   id="bb00ff45-ed9b-4faa-b29d-c21b88ce0e5a">
<rect
   style="stroke: none; stroke-width: 1; stroke-dasharray: none; stroke-linecap: butt; stroke-dashoffset: 0; stroke-linejoin: miter; stroke-miterlimit: 4; fill: rgb(255,255,255); fill-rule: nonzero; opacity: 1; visibility: hidden;"
   vector-effect="non-scaling-stroke"
   x="-540"
   y="-540"
   rx="0"
   ry="0"
   width="1080"
   height="1080"
   id="rect1" />
</g>
<g
   transform="matrix(1 0 0 1 540 540)"
   id="28be0f76-2534-446c-bcee-0e48081462b4">
</g>
<g
   transform="matrix(14.463706,0,0,14.463706,538.64686,537.7027)"
   id="0fc4033c-6c45-4c57-97b3-b4edc4f8550d">
<path
   style="opacity:1;fill:#000000;fill-rule:nonzero;stroke:#000000;stroke-width:0;stroke-linecap:butt;stroke-linejoin:miter;stroke-miterlimit:4;stroke-dasharray:none;stroke-dashoffset:0"
   vector-effect="non-scaling-stroke"
   transform="translate(-50,-50)"
   d="M 87.103,50.023 C 87.103,60.261 83.5,69.057 76.242,76.314 68.985,83.571 60.236,87.176 50,87.176 39.761,87.176 31.015,83.572 23.759,76.314 16.5,69.057 12.897,60.261 12.897,50.023 12.897,39.739 16.5,30.992 23.759,23.734 31.014,16.477 39.76,12.824 50,12.824 c 10.236,0 18.985,3.653 26.241,10.91 7.259,7.258 10.862,16.005 10.862,26.289 z m -42.2,-8.795 -9.226,-16.051 c -4.325,2.499 -7.739,5.911 -10.335,10.236 -2.546,4.327 -3.795,9.083 -3.795,14.322 h 18.409 c 0,-3.893 1.632,-6.729 4.947,-8.507 z M 63.984,74.68 54.854,58.579 c -0.867,0.527 -1.682,0.913 -2.55,1.105 -0.814,0.192 -1.679,0.288 -2.689,0.288 -1.732,0 -3.269,-0.432 -4.712,-1.394 L 35.485,74.68 c 4.421,2.45 9.18,3.7 14.369,3.7 5.097,0 9.806,-1.202 14.13,-3.7 z M 55.335,50.071 c 0,-1.537 -0.48,-2.835 -1.54,-3.893 -1.057,-1.056 -2.354,-1.586 -3.891,-1.586 -1.444,0 -2.738,0.53 -3.845,1.586 -1.156,1.058 -1.682,2.356 -1.682,3.893 0,1.538 0.526,2.885 1.537,3.942 1.056,1.057 2.404,1.585 3.99,1.585 1.491,0 2.739,-0.576 3.845,-1.681 1.056,-1.058 1.586,-2.355 1.586,-3.846 z m 23.118,-0.336 c 0,-5.047 -1.252,-9.708 -3.799,-14.083 -2.496,-4.325 -6.007,-7.833 -10.573,-10.476 l -9.13,15.956 c 3.219,2.068 4.805,4.902 4.805,8.603 z"
   stroke-linecap="round"
   id="path1" />
</g>
</svg>
